<mxfile host="app.diagrams.net" agent="Mozilla/5.0 (Macintosh; Intel Mac OS X 10_15_7) AppleWebKit/605.1.15 (KHTML, like Gecko) Version/18.3.1 Safari/605.1.15" version="26.1.3">
  <diagram name="Page-1" id="13h9gqSCHCEoKlV5jD2p">
    <mxGraphModel dx="1434" dy="877" grid="1" gridSize="10" guides="1" tooltips="1" connect="1" arrows="1" fold="1" page="1" pageScale="1" pageWidth="827" pageHeight="1169" math="0" shadow="0">
      <root>
        <mxCell id="0" />
        <mxCell id="1" parent="0" />
        <mxCell id="ou-_RplUehrW9rmXmP-1-1" value="" style="rounded=0;whiteSpace=wrap;html=1;" vertex="1" parent="1">
          <mxGeometry x="150.5" y="649.14" width="220" height="78.14" as="geometry" />
        </mxCell>
        <mxCell id="ou-_RplUehrW9rmXmP-1-2" value="" style="rounded=0;whiteSpace=wrap;html=1;" vertex="1" parent="1">
          <mxGeometry x="150.5" y="513.5" width="220" height="78.14" as="geometry" />
        </mxCell>
        <mxCell id="ou-_RplUehrW9rmXmP-1-3" value="" style="rounded=0;whiteSpace=wrap;html=1;" vertex="1" parent="1">
          <mxGeometry x="149.5" y="377.07000000000005" width="220" height="78.14" as="geometry" />
        </mxCell>
        <mxCell id="ou-_RplUehrW9rmXmP-1-4" value="" style="rounded=0;whiteSpace=wrap;html=1;" vertex="1" parent="1">
          <mxGeometry x="150.5" y="290" width="220" height="78.14" as="geometry" />
        </mxCell>
        <mxCell id="ou-_RplUehrW9rmXmP-1-5" value="" style="ellipse;shape=cloud;whiteSpace=wrap;html=1;" vertex="1" parent="1">
          <mxGeometry x="596.5" y="353.7199999999999" width="160" height="166" as="geometry" />
        </mxCell>
        <mxCell id="ou-_RplUehrW9rmXmP-1-6" value="" style="verticalLabelPosition=bottom;html=1;verticalAlign=top;align=center;strokeColor=#b85450;fillColor=#f8cecc;shape=mxgraph.azure.user;" vertex="1" parent="1">
          <mxGeometry x="302.5" y="295" width="47.5" height="50" as="geometry" />
        </mxCell>
        <mxCell id="ou-_RplUehrW9rmXmP-1-7" value="" style="verticalLabelPosition=bottom;html=1;verticalAlign=top;align=center;strokeColor=#ae4132;fillColor=#fad9d5;shape=mxgraph.azure.user;" vertex="1" parent="1">
          <mxGeometry x="302.5" y="518.14" width="47.5" height="50" as="geometry" />
        </mxCell>
        <mxCell id="ou-_RplUehrW9rmXmP-1-8" value="" style="verticalLabelPosition=bottom;html=1;verticalAlign=top;align=center;strokeColor=#b85450;fillColor=#f8cecc;shape=mxgraph.azure.user;" vertex="1" parent="1">
          <mxGeometry x="300" y="653.14" width="47.5" height="50" as="geometry" />
        </mxCell>
        <mxCell id="ou-_RplUehrW9rmXmP-1-9" value="att&amp;nbsp;&lt;font color=&quot;#a20025&quot;&gt;X,&lt;/font&gt;&amp;nbsp;A1q1" style="text;html=1;align=center;verticalAlign=middle;resizable=0;points=[];autosize=1;strokeColor=none;fillColor=none;fontStyle=1" vertex="1" parent="1">
          <mxGeometry x="289.5" y="345" width="80" height="30" as="geometry" />
        </mxCell>
        <mxCell id="ou-_RplUehrW9rmXmP-1-10" value="" style="sketch=0;pointerEvents=1;shadow=0;dashed=0;html=1;strokeColor=#ae4132;labelPosition=center;verticalLabelPosition=bottom;verticalAlign=top;outlineConnect=0;align=center;shape=mxgraph.office.security.key_permissions;fillColor=#fad9d5;rotation=0;" vertex="1" parent="1">
          <mxGeometry x="672.5" y="433.2900000000001" width="20" height="36.85" as="geometry" />
        </mxCell>
        <mxCell id="ou-_RplUehrW9rmXmP-1-11" value="PUBLIC CLOUD&lt;div&gt;&amp;nbsp;or BLACK MARKET&lt;/div&gt;" style="text;html=1;align=center;verticalAlign=middle;resizable=0;points=[];autosize=1;strokeColor=none;fillColor=none;fontStyle=1" vertex="1" parent="1">
          <mxGeometry x="620.5" y="327.9999999999999" width="130" height="40" as="geometry" />
        </mxCell>
        <mxCell id="ou-_RplUehrW9rmXmP-1-12" value="randomized&lt;div&gt;&amp;nbsp;key&lt;/div&gt;" style="text;html=1;align=center;verticalAlign=middle;resizable=0;points=[];autosize=1;strokeColor=none;fillColor=none;fontStyle=1" vertex="1" parent="1">
          <mxGeometry x="634.5" y="398.14" width="90" height="40" as="geometry" />
        </mxCell>
        <mxCell id="ou-_RplUehrW9rmXmP-1-13" value="" style="sketch=0;pointerEvents=1;shadow=0;dashed=0;html=1;strokeColor=#ae4132;labelPosition=center;verticalLabelPosition=bottom;verticalAlign=top;outlineConnect=0;align=center;shape=mxgraph.office.security.key_permissions;fillColor=#fad9d5;rotation=0;" vertex="1" parent="1">
          <mxGeometry x="568.5" y="432.71000000000015" width="20" height="36.85" as="geometry" />
        </mxCell>
        <mxCell id="ou-_RplUehrW9rmXmP-1-14" value="&lt;font color=&quot;#a20025&quot;&gt;X&lt;/font&gt;" style="text;html=1;align=center;verticalAlign=middle;resizable=0;points=[];autosize=1;strokeColor=none;fillColor=none;fontStyle=1" vertex="1" parent="1">
          <mxGeometry x="574.5" y="441.56000000000006" width="30" height="30" as="geometry" />
        </mxCell>
        <mxCell id="ou-_RplUehrW9rmXmP-1-15" value="" style="endArrow=classic;html=1;rounded=0;strokeWidth=3;" edge="1" parent="1" target="ou-_RplUehrW9rmXmP-1-5">
          <mxGeometry width="50" height="50" relative="1" as="geometry">
            <mxPoint x="370.5" y="548.14" as="sourcePoint" />
            <mxPoint x="645.5" y="520.89" as="targetPoint" />
          </mxGeometry>
        </mxCell>
        <mxCell id="ou-_RplUehrW9rmXmP-1-16" value="randomize" style="text;html=1;align=center;verticalAlign=middle;resizable=0;points=[];autosize=1;strokeColor=none;fillColor=none;fontStyle=1;rotation=-20;" vertex="1" parent="1">
          <mxGeometry x="499.5" y="461.28999999999996" width="80" height="30" as="geometry" />
        </mxCell>
        <mxCell id="ou-_RplUehrW9rmXmP-1-17" value="att&amp;nbsp;&lt;font color=&quot;#a20025&quot;&gt;X,&lt;/font&gt;&amp;nbsp;Aiqi" style="text;html=1;align=center;verticalAlign=middle;resizable=0;points=[];autosize=1;strokeColor=none;fillColor=none;fontStyle=1" vertex="1" parent="1">
          <mxGeometry x="288.75" y="568.14" width="70" height="30" as="geometry" />
        </mxCell>
        <mxCell id="ou-_RplUehrW9rmXmP-1-18" value="att&amp;nbsp;&lt;font color=&quot;#a20025&quot;&gt;X,&lt;/font&gt;&amp;nbsp;Atqt" style="text;html=1;align=center;verticalAlign=middle;resizable=0;points=[];autosize=1;strokeColor=none;fillColor=none;fontStyle=1" vertex="1" parent="1">
          <mxGeometry x="283.75" y="703.14" width="80" height="30" as="geometry" />
        </mxCell>
        <mxCell id="ou-_RplUehrW9rmXmP-1-19" value="Malicious group" style="text;html=1;align=center;verticalAlign=middle;resizable=0;points=[];autosize=1;strokeColor=none;fillColor=none;fontStyle=1" vertex="1" parent="1">
          <mxGeometry x="140" y="491.14" width="110" height="30" as="geometry" />
        </mxCell>
        <mxCell id="ou-_RplUehrW9rmXmP-1-20" value="" style="verticalLabelPosition=bottom;html=1;verticalAlign=top;align=center;strokeColor=#b85450;fillColor=#f8cecc;shape=mxgraph.azure.user;" vertex="1" parent="1">
          <mxGeometry x="302.5" y="382" width="47.5" height="50" as="geometry" />
        </mxCell>
        <mxCell id="ou-_RplUehrW9rmXmP-1-21" value="att&amp;nbsp;&lt;font color=&quot;#a20025&quot;&gt;X,&lt;/font&gt;&amp;nbsp;A2q2" style="text;html=1;align=center;verticalAlign=middle;resizable=0;points=[];autosize=1;strokeColor=none;fillColor=none;fontStyle=1" vertex="1" parent="1">
          <mxGeometry x="289.5" y="432" width="80" height="30" as="geometry" />
        </mxCell>
        <mxCell id="ou-_RplUehrW9rmXmP-1-22" value="" style="shape=mxgraph.cisco.people.androgenous_person;html=1;pointerEvents=1;dashed=0;fillColor=#f8cecc;strokeColor=#b85450;strokeWidth=2;verticalLabelPosition=bottom;verticalAlign=top;align=center;outlineConnect=0;gradientColor=#ea6b66;" vertex="1" parent="1">
          <mxGeometry x="647.5" y="584.14" width="69" height="82" as="geometry" />
        </mxCell>
        <mxCell id="ou-_RplUehrW9rmXmP-1-23" value="&lt;font color=&quot;#a20025&quot;&gt;X&lt;/font&gt;" style="text;html=1;align=center;verticalAlign=middle;resizable=0;points=[];autosize=1;strokeColor=none;fillColor=none;fontStyle=1" vertex="1" parent="1">
          <mxGeometry x="679" y="441.56000000000006" width="30" height="30" as="geometry" />
        </mxCell>
        <mxCell id="ou-_RplUehrW9rmXmP-1-24" value="" style="endArrow=classic;html=1;rounded=0;strokeWidth=3;" edge="1" parent="1">
          <mxGeometry width="50" height="50" relative="1" as="geometry">
            <mxPoint x="670.5" y="498.14" as="sourcePoint" />
            <mxPoint x="670.5" y="578.14" as="targetPoint" />
          </mxGeometry>
        </mxCell>
        <mxCell id="ou-_RplUehrW9rmXmP-1-25" value="" style="sketch=0;pointerEvents=1;shadow=0;dashed=0;html=1;strokeColor=#ae4132;labelPosition=center;verticalLabelPosition=bottom;verticalAlign=top;outlineConnect=0;align=center;shape=mxgraph.office.security.key_permissions;fillColor=#fad9d5;rotation=0;" vertex="1" parent="1">
          <mxGeometry x="701" y="541.7100000000002" width="20" height="36.85" as="geometry" />
        </mxCell>
        <mxCell id="ou-_RplUehrW9rmXmP-1-26" value="&lt;font color=&quot;#a20025&quot;&gt;X&lt;/font&gt;" style="text;html=1;align=center;verticalAlign=middle;resizable=0;points=[];autosize=1;strokeColor=none;fillColor=none;fontStyle=1" vertex="1" parent="1">
          <mxGeometry x="708" y="550.14" width="30" height="30" as="geometry" />
        </mxCell>
        <mxCell id="ou-_RplUehrW9rmXmP-1-27" value="" style="endArrow=classic;html=1;rounded=0;entryX=1.057;entryY=0.571;entryDx=0;entryDy=0;entryPerimeter=0;" edge="1" parent="1" target="ou-_RplUehrW9rmXmP-1-9">
          <mxGeometry width="50" height="50" relative="1" as="geometry">
            <mxPoint x="640.5" y="608.14" as="sourcePoint" />
            <mxPoint x="362.5" y="400.14" as="targetPoint" />
          </mxGeometry>
        </mxCell>
        <mxCell id="ou-_RplUehrW9rmXmP-1-28" value="" style="endArrow=classic;html=1;rounded=0;entryX=1.057;entryY=0.838;entryDx=0;entryDy=0;entryPerimeter=0;" edge="1" parent="1" target="ou-_RplUehrW9rmXmP-1-21">
          <mxGeometry width="50" height="50" relative="1" as="geometry">
            <mxPoint x="640.5" y="618.14" as="sourcePoint" />
            <mxPoint x="360.5" y="478.14" as="targetPoint" />
          </mxGeometry>
        </mxCell>
        <mxCell id="ou-_RplUehrW9rmXmP-1-29" value="" style="endArrow=classic;html=1;rounded=0;" edge="1" parent="1">
          <mxGeometry width="50" height="50" relative="1" as="geometry">
            <mxPoint x="640.5" y="628.14" as="sourcePoint" />
            <mxPoint x="370.5" y="578.14" as="targetPoint" />
          </mxGeometry>
        </mxCell>
        <mxCell id="ou-_RplUehrW9rmXmP-1-30" value="" style="endArrow=classic;html=1;rounded=0;" edge="1" parent="1">
          <mxGeometry width="50" height="50" relative="1" as="geometry">
            <mxPoint x="640.5" y="638.14" as="sourcePoint" />
            <mxPoint x="370.5" y="688.14" as="targetPoint" />
          </mxGeometry>
        </mxCell>
        <mxCell id="ou-_RplUehrW9rmXmP-1-31" value="&lt;b&gt;&lt;font color=&quot;#ff0000&quot; style=&quot;font-size: 22px;&quot;&gt;?&lt;/font&gt;&lt;/b&gt;" style="text;html=1;align=center;verticalAlign=middle;resizable=0;points=[];autosize=1;strokeColor=none;fillColor=none;" vertex="1" parent="1">
          <mxGeometry x="383.5" y="360.14" width="40" height="40" as="geometry" />
        </mxCell>
        <mxCell id="ou-_RplUehrW9rmXmP-1-32" value="&lt;font color=&quot;#ff0000&quot; style=&quot;font-size: 18px;&quot;&gt;1/t&lt;/font&gt;" style="text;html=1;align=center;verticalAlign=middle;resizable=0;points=[];autosize=1;strokeColor=none;fillColor=none;fontStyle=1" vertex="1" parent="1">
          <mxGeometry x="382.5" y="397.14" width="40" height="30" as="geometry" />
        </mxCell>
        <mxCell id="ou-_RplUehrW9rmXmP-1-33" value="randomized&lt;div&gt;&amp;nbsp;key&lt;/div&gt;" style="text;html=1;align=center;verticalAlign=middle;resizable=0;points=[];autosize=1;strokeColor=none;fillColor=none;fontStyle=1" vertex="1" parent="1">
          <mxGeometry x="666.5" y="507.14" width="90" height="40" as="geometry" />
        </mxCell>
        <mxCell id="ou-_RplUehrW9rmXmP-1-34" value="&lt;b&gt;&lt;font color=&quot;#ff0000&quot; style=&quot;font-size: 22px;&quot;&gt;?&lt;/font&gt;&lt;/b&gt;" style="text;html=1;align=center;verticalAlign=middle;resizable=0;points=[];autosize=1;strokeColor=none;fillColor=none;" vertex="1" parent="1">
          <mxGeometry x="383.5" y="442.64" width="40" height="40" as="geometry" />
        </mxCell>
        <mxCell id="ou-_RplUehrW9rmXmP-1-35" value="&lt;font color=&quot;#ff0000&quot; style=&quot;font-size: 18px;&quot;&gt;1/t&lt;/font&gt;" style="text;html=1;align=center;verticalAlign=middle;resizable=0;points=[];autosize=1;strokeColor=none;fillColor=none;fontStyle=1" vertex="1" parent="1">
          <mxGeometry x="382.5" y="479.64" width="40" height="30" as="geometry" />
        </mxCell>
        <mxCell id="ou-_RplUehrW9rmXmP-1-36" value="&lt;b&gt;&lt;font color=&quot;#ff0000&quot; style=&quot;font-size: 22px;&quot;&gt;?&lt;/font&gt;&lt;/b&gt;" style="text;html=1;align=center;verticalAlign=middle;resizable=0;points=[];autosize=1;strokeColor=none;fillColor=none;" vertex="1" parent="1">
          <mxGeometry x="384.5" y="552.64" width="40" height="40" as="geometry" />
        </mxCell>
        <mxCell id="ou-_RplUehrW9rmXmP-1-37" value="&lt;font color=&quot;#ff0000&quot; style=&quot;font-size: 18px;&quot;&gt;1/t&lt;/font&gt;" style="text;html=1;align=center;verticalAlign=middle;resizable=0;points=[];autosize=1;strokeColor=none;fillColor=none;fontStyle=1" vertex="1" parent="1">
          <mxGeometry x="384.5" y="590.64" width="40" height="30" as="geometry" />
        </mxCell>
        <mxCell id="ou-_RplUehrW9rmXmP-1-38" value="&lt;b&gt;&lt;font color=&quot;#ff0000&quot; style=&quot;font-size: 22px;&quot;&gt;?&lt;/font&gt;&lt;/b&gt;" style="text;html=1;align=center;verticalAlign=middle;resizable=0;points=[];autosize=1;strokeColor=none;fillColor=none;" vertex="1" parent="1">
          <mxGeometry x="384.5" y="646.14" width="40" height="40" as="geometry" />
        </mxCell>
        <mxCell id="ou-_RplUehrW9rmXmP-1-39" value="&lt;font color=&quot;#ff0000&quot; style=&quot;font-size: 18px;&quot;&gt;1/t&lt;/font&gt;" style="text;html=1;align=center;verticalAlign=middle;resizable=0;points=[];autosize=1;strokeColor=none;fillColor=none;fontStyle=1" vertex="1" parent="1">
          <mxGeometry x="383.5" y="683.14" width="40" height="30" as="geometry" />
        </mxCell>
        <mxCell id="ou-_RplUehrW9rmXmP-1-40" value="Authority" style="text;html=1;align=center;verticalAlign=middle;resizable=0;points=[];autosize=1;strokeColor=none;fillColor=none;fontStyle=1" vertex="1" parent="1">
          <mxGeometry x="647.5" y="662.14" width="70" height="30" as="geometry" />
        </mxCell>
        <mxCell id="ou-_RplUehrW9rmXmP-1-41" value="" style="endArrow=none;dashed=1;html=1;dashPattern=1 3;strokeWidth=5;rounded=0;" edge="1" parent="1">
          <mxGeometry width="50" height="50" relative="1" as="geometry">
            <mxPoint x="268" y="644.14" as="sourcePoint" />
            <mxPoint x="268.5" y="594.14" as="targetPoint" />
          </mxGeometry>
        </mxCell>
        <mxCell id="ou-_RplUehrW9rmXmP-1-42" value="" style="endArrow=none;dashed=1;html=1;dashPattern=1 3;strokeWidth=5;rounded=0;" edge="1" parent="1">
          <mxGeometry width="50" height="50" relative="1" as="geometry">
            <mxPoint x="267" y="510.64" as="sourcePoint" />
            <mxPoint x="267.5" y="460.64" as="targetPoint" />
          </mxGeometry>
        </mxCell>
        <mxCell id="ou-_RplUehrW9rmXmP-1-43" value="" style="verticalLabelPosition=bottom;html=1;verticalAlign=top;align=center;strokeColor=#b85450;fillColor=#f8cecc;shape=mxgraph.azure.user;" vertex="1" parent="1">
          <mxGeometry x="178.5" y="295" width="47.5" height="50" as="geometry" />
        </mxCell>
        <mxCell id="ou-_RplUehrW9rmXmP-1-44" value="att&amp;nbsp;&lt;font color=&quot;#a20025&quot;&gt;X,&lt;/font&gt;&amp;nbsp;A11" style="text;html=1;align=center;verticalAlign=middle;resizable=0;points=[];autosize=1;strokeColor=none;fillColor=none;fontStyle=1" vertex="1" parent="1">
          <mxGeometry x="165.5" y="345" width="80" height="30" as="geometry" />
        </mxCell>
        <mxCell id="ou-_RplUehrW9rmXmP-1-45" value="" style="verticalLabelPosition=bottom;html=1;verticalAlign=top;align=center;strokeColor=#b85450;fillColor=#f8cecc;shape=mxgraph.azure.user;" vertex="1" parent="1">
          <mxGeometry x="177.5" y="382" width="47.5" height="50" as="geometry" />
        </mxCell>
        <mxCell id="ou-_RplUehrW9rmXmP-1-46" value="att&amp;nbsp;&lt;font color=&quot;#a20025&quot;&gt;X,&lt;/font&gt;&amp;nbsp;A21" style="text;html=1;align=center;verticalAlign=middle;resizable=0;points=[];autosize=1;strokeColor=none;fillColor=none;fontStyle=1" vertex="1" parent="1">
          <mxGeometry x="164.5" y="432" width="80" height="30" as="geometry" />
        </mxCell>
        <mxCell id="ou-_RplUehrW9rmXmP-1-47" value="" style="verticalLabelPosition=bottom;html=1;verticalAlign=top;align=center;strokeColor=#b85450;fillColor=#f8cecc;shape=mxgraph.azure.user;" vertex="1" parent="1">
          <mxGeometry x="177.5" y="518.14" width="47.5" height="50" as="geometry" />
        </mxCell>
        <mxCell id="ou-_RplUehrW9rmXmP-1-48" value="att&amp;nbsp;&lt;font color=&quot;#a20025&quot;&gt;X,&lt;/font&gt;&amp;nbsp;Ai1" style="text;html=1;align=center;verticalAlign=middle;resizable=0;points=[];autosize=1;strokeColor=none;fillColor=none;fontStyle=1" vertex="1" parent="1">
          <mxGeometry x="169.5" y="568.14" width="70" height="30" as="geometry" />
        </mxCell>
        <mxCell id="ou-_RplUehrW9rmXmP-1-49" value="" style="verticalLabelPosition=bottom;html=1;verticalAlign=top;align=center;strokeColor=#b85450;fillColor=#f8cecc;shape=mxgraph.azure.user;" vertex="1" parent="1">
          <mxGeometry x="179.5" y="653.14" width="47.5" height="50" as="geometry" />
        </mxCell>
        <mxCell id="ou-_RplUehrW9rmXmP-1-50" value="att&amp;nbsp;&lt;font color=&quot;#a20025&quot;&gt;X,&lt;/font&gt;&amp;nbsp;At1" style="text;html=1;align=center;verticalAlign=middle;resizable=0;points=[];autosize=1;strokeColor=none;fillColor=none;fontStyle=1" vertex="1" parent="1">
          <mxGeometry x="171.5" y="703.14" width="70" height="30" as="geometry" />
        </mxCell>
        <mxCell id="ou-_RplUehrW9rmXmP-1-51" value="" style="endArrow=none;dashed=1;html=1;dashPattern=1 3;strokeWidth=5;rounded=0;" edge="1" parent="1">
          <mxGeometry width="50" height="50" relative="1" as="geometry">
            <mxPoint x="239" y="332.28" as="sourcePoint" />
            <mxPoint x="289.5" y="332.14" as="targetPoint" />
          </mxGeometry>
        </mxCell>
        <mxCell id="ou-_RplUehrW9rmXmP-1-52" value="" style="endArrow=none;dashed=1;html=1;dashPattern=1 3;strokeWidth=5;rounded=0;" edge="1" parent="1">
          <mxGeometry width="50" height="50" relative="1" as="geometry">
            <mxPoint x="238.25" y="417.28" as="sourcePoint" />
            <mxPoint x="288.75" y="417.14" as="targetPoint" />
          </mxGeometry>
        </mxCell>
        <mxCell id="ou-_RplUehrW9rmXmP-1-53" value="" style="endArrow=none;dashed=1;html=1;dashPattern=1 3;strokeWidth=5;rounded=0;" edge="1" parent="1">
          <mxGeometry width="50" height="50" relative="1" as="geometry">
            <mxPoint x="238.25" y="559.78" as="sourcePoint" />
            <mxPoint x="288.75" y="559.64" as="targetPoint" />
          </mxGeometry>
        </mxCell>
        <mxCell id="ou-_RplUehrW9rmXmP-1-54" value="" style="endArrow=none;dashed=1;html=1;dashPattern=1 3;strokeWidth=5;rounded=0;" edge="1" parent="1">
          <mxGeometry width="50" height="50" relative="1" as="geometry">
            <mxPoint x="238.25" y="692.28" as="sourcePoint" />
            <mxPoint x="288.75" y="692.14" as="targetPoint" />
          </mxGeometry>
        </mxCell>
      </root>
    </mxGraphModel>
  </diagram>
</mxfile>
